<?xml version="1.0" encoding="UTF-8" standalone="no"?>
<!DOCTYPE svg PUBLIC "-//W3C//DTD SVG 1.1//EN" "http://www.w3.org/Graphics/SVG/1.1/DTD/svg11.dtd">
<svg version="1.1" xmlns="http://www.w3.org/2000/svg" xmlns:xlink="http://www.w3.org/1999/xlink" preserveAspectRatio="xMidYMid meet" viewBox="0 0 640 640" width="300" height="300"><defs><path d="" id="cK71fUw8h"></path><path d="M162.26 64.59L155.72 73.58L143.46 86.66L136.92 95.65L123.85 109.54L114.04 121.8L105.05 131.61L94.42 142.24L87.88 150.41L81.35 158.58" id="g3m7xjYEIN"></path><path d="M199.86 82.57L209.66 96.47L217.02 105.46L228.46 120.99L235 131.61L244.81 145.5L252.98 154.5L266.06 170.84L274.23 179.83" id="f1FpOnh7Za"></path><path d="M373.94 75.22L367.4 85.84L359.23 95.65L351.87 103L343.7 111.18L335.53 119.35" id="aI72JJeYj"></path><path d="M373.94 76.85L389.47 76.85L400.91 76.85L412.36 76.85L428.7 76.85L445.05 76.85L455.67 78.49L463.03 85.84L455.67 97.28L446.68 112L440.14 125.89L432.79 138.97L425.43 153.68L417.26 166.75L409.09 179.83L399.28 193.73L391.11 201.9L383.75 209.25" id="d3LSKPmhNu"></path><path d="M360.05 99.74L371.49 99.74L383.75 103.82L395.19 108.73L406.63 114.45L416.44 120.17L425.43 125.89" id="h1IP45SwRN"></path><path d="M495.72 47.43L503.89 56.42L515.34 68.68L523.51 79.3L530.05 87.48" id="aChDeAYjt"></path><path d="M525.14 31.08L534.95 39.25L543.94 47.43L551.3 58.05L559.47 67.04L566.83 74.4" id="e5CIroApqs"></path></defs><g><g><g><g><use xlink:href="#cK71fUw8h" opacity="1" fill-opacity="0" stroke="#000000" stroke-width="10" stroke-opacity="1"></use></g></g><g><g><use xlink:href="#g3m7xjYEIN" opacity="1" fill-opacity="0" stroke="#000000" stroke-width="10" stroke-opacity="1"></use></g></g><g><g><use xlink:href="#f1FpOnh7Za" opacity="1" fill-opacity="0" stroke="#000000" stroke-width="10" stroke-opacity="1"></use></g></g><g><g><use xlink:href="#aI72JJeYj" opacity="1" fill-opacity="0" stroke="#000000" stroke-width="10" stroke-opacity="1"></use></g></g><g><g><use xlink:href="#d3LSKPmhNu" opacity="1" fill-opacity="0" stroke="#000000" stroke-width="10" stroke-opacity="1"></use></g></g><g><g><use xlink:href="#h1IP45SwRN" opacity="1" fill-opacity="0" stroke="#000000" stroke-width="10" stroke-opacity="1"></use></g></g><g><g><use xlink:href="#aChDeAYjt" opacity="1" fill-opacity="0" stroke="#000000" stroke-width="10" stroke-opacity="1"></use></g></g><g><g><use xlink:href="#e5CIroApqs" opacity="1" fill-opacity="0" stroke="#000000" stroke-width="10" stroke-opacity="1"></use></g></g></g></g></svg>